<?xml version="1.0" standalone="no"?>
<!DOCTYPE svg PUBLIC "-//W3C//DTD SVG 20010904//EN"
 "http://www.w3.org/TR/2001/REC-SVG-20010904/DTD/svg10.dtd">
<svg version="1.0" xmlns="http://www.w3.org/2000/svg"
 width="1300.000000pt" height="1300.000000pt" viewBox="0 0 1300.000000 1300.000000"
 preserveAspectRatio="xMidYMid meet">
<metadata>
Created by potrace 1.11, written by Peter Selinger 2001-2013
</metadata>
<g transform="translate(0.000000,1300.000000) scale(0.100000,-0.100000)"
fill="#000000" stroke="none">
<path d="M7028 11730 c-118 -21 -221 -99 -275 -207 -45 -93 -43 -268 4 -338
19 -29 17 -40 -23 -95 -20 -28 -45 -74 -56 -103 -40 -103 -34 -288 13 -378 10
-21 21 -64 23 -96 6 -73 15 -100 28 -81 7 9 8 7 5 -9 -5 -23 19 -67 33 -58 14
8 20 -24 20 -104 0 -74 2 -80 36 -124 38 -49 51 -58 40 -31 -3 9 -2 12 5 9 6
-4 8 -13 5 -20 -2 -7 4 -36 15 -64 29 -77 42 -178 31 -255 -5 -36 -5 -66 -1
-66 4 0 9 15 11 33 l3 32 6 -38 c3 -27 1 -41 -10 -50 -12 -10 -13 -9 -6 2 5
10 4 12 -4 7 -6 -4 -9 -18 -7 -32 3 -13 0 -24 -5 -24 -5 0 -9 -13 -9 -30 0
-16 5 -30 10 -30 6 0 9 -23 8 -52 l-1 -53 -6 50 c-6 43 -7 35 -12 -55 -5 -73
-13 -123 -29 -163 -16 -43 -19 -62 -11 -70 6 -6 11 -15 11 -20 0 -5 -7 -1 -16
8 -16 15 -20 14 -53 -19 -55 -54 -65 -62 -81 -69 -10 -3 -7 -6 8 -6 13 -1 31
7 40 17 10 10 13 12 8 5 -5 -8 -6 -16 -3 -19 9 -9 97 7 97 18 0 5 9 6 21 3 13
-5 50 8 111 36 l91 44 -42 18 c-41 18 -50 30 -31 42 6 3 10 24 10 46 0 22 4
38 8 35 5 -3 6 9 4 26 -4 23 -2 29 8 23 10 -6 11 -2 7 17 -5 17 -2 30 8 38 12
10 13 16 4 26 -7 9 -7 14 -1 14 5 0 15 20 21 44 13 52 13 70 1 41 -7 -16 -9
-17 -9 -3 -1 9 6 23 14 32 9 8 17 29 18 46 2 25 4 28 13 15 12 -17 29 -21 19
-5 -3 6 -1 10 4 10 6 0 11 -8 11 -17 0 -15 2 -14 15 3 13 18 14 17 9 -9 -3
-16 -1 -26 5 -23 5 3 14 -1 21 -9 14 -17 35 -21 25 -5 -3 6 -1 10 4 10 6 0 11
-7 11 -15 0 -9 6 -12 17 -8 11 4 14 3 9 -5 -4 -7 -5 -12 -2 -12 2 0 13 -3 23
-6 15 -5 15 -4 3 5 -17 12 -2 15 25 5 13 -6 14 -9 3 -16 -9 -6 -5 -7 11 -3 14
4 21 3 18 -2 -4 -6 29 -9 81 -8 121 3 119 2 143 28 12 12 18 16 14 9 -10 -19
31 2 63 31 12 11 22 17 22 12 0 -4 9 0 20 10 11 10 17 22 14 26 -3 5 3 6 13 2
10 -3 15 -3 12 1 -3 3 9 22 27 41 79 85 113 225 90 375 -3 19 -2 28 2 20 9
-20 36 -26 29 -6 -3 8 1 28 9 45 8 16 16 43 17 59 1 17 5 28 10 25 10 -6 9 5
-3 27 -8 15 -7 18 3 14 14 -5 37 34 37 61 0 23 15 18 67 -19 27 -18 67 -43 91
-55 l42 -22 10 27 c50 130 69 296 46 402 -31 148 -109 246 -251 314 -51 25
-89 53 -140 107 -82 86 -167 149 -257 191 l-65 31 -5 69 c-6 75 -38 152 -87
203 -79 84 -265 140 -393 117z m562 -563 c0 -2 -15 -16 -32 -33 l-33 -29 29
33 c28 30 36 37 36 29z m-70 -70 c0 -2 -17 -19 -37 -38 l-38 -34 34 38 c33 34
41 42 41 34z m-104 -106 c-21 -22 -24 -30 -13 -34 8 -3 19 -1 24 4 6 6 10 4
10 -5 0 -19 -44 -39 -53 -24 -4 6 -3 8 4 4 6 -3 13 -2 16 3 3 5 -1 11 -8 14
-17 7 -39 -16 -28 -28 4 -5 1 -4 -7 0 -11 6 -13 4 -8 -8 3 -9 2 -19 -4 -22 -5
-4 -7 -10 -4 -15 5 -8 -11 -23 -27 -26 -5 -1 -10 -3 -13 -4 -3 -1 -11 -3 -17
-4 -7 0 -14 -7 -14 -13 -1 -7 -3 -16 -4 -20 -1 -5 -2 -11 -1 -15 0 -5 -5 -7
-11 -5 -7 1 -12 -4 -10 -11 1 -8 -2 -11 -7 -8 -5 4 -12 2 -16 -3 -3 -6 -13 -7
-22 -4 -12 5 -15 2 -10 -10 3 -9 2 -19 -4 -22 -5 -4 -7 -10 -4 -15 3 -4 -2
-13 -10 -20 -8 -7 -15 -9 -15 -5 0 4 -6 3 -13 -3 -14 -12 -46 2 -34 15 5 4 12
1 17 -7 6 -8 10 -10 10 -4 0 6 -7 17 -15 24 -12 10 -16 9 -21 -4 -3 -9 -11
-16 -17 -16 -5 0 -2 9 8 20 12 14 22 17 30 10 21 -17 24 1 4 21 -19 19 -18 39
2 39 6 0 7 -9 4 -22 -6 -16 -4 -20 9 -15 8 3 18 2 21 -3 4 -6 11 -10 16 -10 6
0 3 7 -5 16 -18 18 -20 30 -6 39 6 3 7 -1 4 -9 -7 -19 12 -22 19 -3 4 9 8 8
16 -3 6 -8 11 -10 11 -4 0 6 -12 20 -26 33 -20 18 -23 25 -14 37 7 8 18 14 24
13 6 0 6 -3 -2 -6 -10 -4 -9 -9 5 -19 17 -13 17 -14 -2 -7 -18 6 -18 5 -6 -10
10 -13 17 -15 27 -6 10 8 11 15 4 24 -11 14 5 33 17 21 3 -3 13 -1 20 6 11 9
17 9 24 -3 5 -8 9 -9 9 -4 0 6 -9 18 -20 28 -19 16 -25 14 -20 -8 1 -5 -4 -4
-11 3 -10 9 -10 15 -1 24 9 9 16 8 30 -5 16 -15 21 -15 30 -4 12 14 7 27 -10
27 -5 0 -6 -5 -2 -12 5 -7 3 -8 -6 -3 -17 11 28 46 55 42 12 -1 19 3 17 11 -1
8 1 11 6 8 5 -3 22 8 37 24 16 17 31 30 34 30 2 0 -8 -13 -23 -29z m71 -17
c-3 -3 -12 -4 -19 -1 -8 3 -5 6 6 6 11 1 17 -2 13 -5z m153 -12 c-8 -3 -20 -9
-27 -14 -8 -6 -10 -4 -6 10 3 14 11 18 26 14 15 -4 17 -7 7 -10z m-123 -8 c-3
-3 -12 -4 -19 -1 -8 3 -5 6 6 6 11 1 17 -2 13 -5z m90 -46 c-3 -8 -6 -5 -6 6
-1 11 2 17 5 13 3 -3 4 -12 1 -19z m10 -60 c-3 -8 -6 -5 -6 6 -1 11 2 17 5 13
3 -3 4 -12 1 -19z m-517 -102 c0 -2 -7 -9 -15 -16 -13 -11 -14 -10 -9 4 5 14
24 23 24 12z m3 -86 c8 0 7 4 -3 10 -8 5 -11 12 -7 17 12 11 27 -19 17 -33 -6
-6 -6 -14 -2 -18 4 -4 0 -6 -8 -4 -8 2 -14 -3 -12 -9 1 -7 -1 -12 -5 -12 -5 1
-11 0 -15 -1 -5 -1 -13 -3 -20 -4 -6 0 -13 -12 -15 -25 -4 -27 -23 -55 -31
-46 -3 3 -11 0 -19 -6 -7 -6 -13 -8 -13 -4 0 4 -7 2 -15 -5 -8 -6 -20 -9 -27
-5 -7 4 -2 -3 12 -14 14 -12 19 -20 10 -19 -10 2 -15 -5 -14 -20 1 -16 -2 -20
-11 -12 -6 5 -15 6 -19 2 -4 -4 -13 -7 -19 -7 -7 0 -13 -6 -13 -12 -1 -7 -3
-16 -4 -20 -1 -5 -2 -11 -1 -15 0 -5 -5 -7 -11 -5 -7 1 -12 -5 -10 -13 2 -8 0
-12 -4 -8 -4 4 -12 4 -18 -2 -14 -10 -44 5 -33 17 5 4 12 1 17 -7 6 -8 10 -10
10 -4 0 5 -6 16 -12 23 -7 7 -8 12 -3 11 23 -5 28 1 10 13 -17 13 -17 14 1 12
11 0 25 -5 32 -9 7 -4 16 -5 19 -2 4 3 1 6 -5 6 -19 0 -14 28 7 35 10 3 27 15
37 27 19 21 19 21 -1 15 -19 -7 -19 -6 -2 7 9 7 17 19 18 27 0 8 4 5 9 -6 7
-15 9 -16 9 -4 1 9 10 19 21 22 11 3 20 9 19 14 -4 22 3 34 17 31 10 -2 19 3
22 11 3 9 0 11 -8 6 -7 -4 -6 4 4 23 19 37 32 46 42 31 4 -8 3 -9 -4 -5 -7 4
-12 3 -12 -3 0 -17 17 -21 29 -7 9 11 8 17 -3 29 -8 8 -12 18 -8 21 3 4 12 -5
19 -19 8 -14 19 -25 26 -25z m-253 30 c8 -5 11 -10 5 -10 -5 0 -17 5 -25 10
-8 5 -10 10 -5 10 6 0 17 -5 25 -10z m50 -40 c0 -5 -2 -10 -4 -10 -3 0 -8 5
-11 10 -3 6 -1 10 4 10 6 0 11 -4 11 -10z m30 -52 c0 -6 -7 -5 -15 2 -8 7 -15
17 -15 22 0 6 7 5 15 -2 8 -7 15 -17 15 -22z m-93 -50 c-3 -8 -6 -5 -6 6 -1
11 2 17 5 13 3 -3 4 -12 1 -19z m3 -83 c0 -5 -5 -3 -10 5 -5 8 -10 20 -10 25
0 6 5 3 10 -5 5 -8 10 -19 10 -25z m-58 -68 c-7 -8 -9 -17 -5 -20 3 -4 3 -7 0
-7 -3 0 -11 9 -17 20 -6 11 -7 20 -3 19 20 -3 24 2 12 19 -12 16 -12 16 6 0
14 -13 16 -20 7 -31z m668 33 c11 -8 7 -9 -15 -4 -37 8 -45 14 -19 14 10 0 26
-5 34 -10z m-143 -46 c-3 -3 -12 -4 -19 -1 -8 3 -5 6 6 6 11 1 17 -2 13 -5z
m200 -36 c-3 -7 -5 -2 -5 12 0 14 2 19 5 13 2 -7 2 -19 0 -25z m-180 16 c-3
-3 -12 -4 -19 -1 -8 3 -5 6 6 6 11 1 17 -2 13 -5z m543 -28 c0 -2 -7 -7 -16
-10 -8 -3 -12 -2 -9 4 6 10 25 14 25 6z m-403 -48 c-3 -7 -5 -2 -5 12 0 14 2
19 5 13 2 -7 2 -19 0 -25z m46 7 c-3 -9 -8 -14 -10 -11 -3 3 -2 9 2 15 9 16
15 13 8 -4z m260 -42 c3 -5 -2 -15 -11 -23 -14 -13 -15 -12 -9 2 4 11 0 18
-11 21 -12 3 -11 5 5 6 12 0 24 -2 26 -6z m33 -121 c-4 -3 -14 2 -24 12 -16
18 -16 18 6 6 13 -6 21 -14 18 -18z m-51 8 c25 -11 -1 -11 -35 0 -20 6 -21 8
-5 8 11 0 29 -3 40 -8z m-28 -16 c-3 -3 -12 -4 -19 -1 -8 3 -5 6 6 6 11 1 17
-2 13 -5z m-801 -101 c3 -29 2 -33 -5 -18 -11 22 -14 72 -5 62 3 -3 8 -23 10
-44z m894 37 c0 -5 -2 -10 -4 -10 -3 0 -8 5 -11 10 -3 6 -1 10 4 10 6 0 11 -4
11 -10z m-871 -120 c0 -10 -3 -8 -9 5 -12 27 -12 43 0 25 5 -8 9 -22 9 -30z
m476 0 c3 -5 1 -10 -4 -10 -6 0 -11 5 -11 10 0 6 2 10 4 10 3 0 8 -4 11 -10z
m-470 -292 c0 -6 7 -12 15 -14 8 -1 24 -6 34 -10 15 -6 17 -4 11 7 -7 12 -6
12 7 1 13 -10 17 -10 21 0 3 8 6 6 6 -6 1 -13 -4 -16 -15 -12 -12 5 -15 2 -10
-11 6 -16 6 -16 -12 0 -29 26 -38 20 -12 -8 12 -13 27 -22 32 -19 5 3 7 2 6
-3 -2 -4 0 -8 3 -8 3 0 13 -6 23 -14 13 -11 14 -17 4 -28 -9 -11 -9 -16 3 -23
10 -7 8 -9 -9 -7 -24 1 -29 12 -11 23 7 4 -15 32 -55 71 -37 35 -64 69 -60 74
7 12 19 3 19 -13z m112 -30 c-3 -8 -6 -5 -6 6 -1 11 2 17 5 13 3 -3 4 -12 1
-19z m308 2 c13 -6 15 -9 5 -9 -8 0 -22 4 -30 9 -18 12 -2 12 25 0z m-430 -10
c3 -5 2 -10 -4 -10 -5 0 -13 5 -16 10 -3 6 -2 10 4 10 5 0 13 -4 16 -10z m518
-7 c-13 -2 -33 -2 -45 0 -13 2 -3 4 22 4 25 0 35 -2 23 -4z m104 1 c-3 -3 -12
-4 -19 -1 -8 3 -5 6 6 6 11 1 17 -2 13 -5z m-567 -51 c0 -7 10 -18 23 -23 12
-5 17 -9 10 -9 -24 -2 -43 12 -43 31 0 12 -4 17 -12 12 -7 -4 -10 -4 -6 1 4 4
2 15 -4 24 -8 10 -4 9 10 -3 12 -11 22 -25 22 -33z m527 41 c-3 -3 -12 -4 -19
-1 -8 3 -5 6 6 6 11 1 17 -2 13 -5z m-440 -36 c-3 -8 -6 -5 -6 6 -1 11 2 17 5
13 3 -3 4 -12 1 -19z m-83 -67 c-2 -3 -12 3 -22 13 -16 17 -16 18 5 5 12 -7
20 -15 17 -18z m-77 -113 c-3 -8 -6 -5 -6 6 -1 11 2 17 5 13 3 -3 4 -12 1 -19z
m10 -50 c-3 -7 -5 -2 -5 12 0 14 2 19 5 13 2 -7 2 -19 0 -25z m108 -108 c-3
-5 -12 -10 -18 -10 -7 0 -6 4 3 10 19 12 23 12 15 0z m-50 -20 c-27 -12 -43
-12 -25 0 8 5 22 9 30 9 10 0 8 -3 -5 -9z"/>
<path d="M7315 10931 c-3 -5 0 -13 5 -16 8 -5 6 -13 -6 -26 -15 -17 -12 -21
14 -18 4 1 6 6 4 12 -2 5 3 14 10 18 11 7 10 9 -1 9 -7 0 -11 6 -7 15 6 16 -9
21 -19 6z"/>
<path d="M7238 10838 c9 -9 8 -16 -5 -30 -21 -23 -8 -23 15 0 15 15 16 21 6
30 -17 16 -32 16 -16 0z"/>
<path d="M7157 10741 c2 -2 -2 -10 -7 -16 -8 -9 -6 -14 4 -18 21 -8 28 7 13
24 -7 8 -11 12 -10 10z"/>
<path d="M7070 10645 c-9 -11 -16 -12 -25 -5 -12 10 -25 4 -25 -11 0 -5 7 -6
15 -3 8 4 15 1 15 -5 0 -7 10 -3 22 9 12 11 19 22 16 25 -3 3 -11 -1 -18 -10z"/>
<path d="M6989 10583 c-1 -2 -2 -6 -3 -10 -1 -5 -5 -14 -10 -21 -4 -7 -5 -16
-2 -19 3 -4 6 -1 6 6 0 6 7 11 16 9 9 -2 20 6 25 19 6 18 4 21 -12 20 -10 -1
-20 -3 -20 -4z m19 -28 c-3 -3 -9 2 -12 12 -6 14 -5 15 5 6 7 -7 10 -15 7 -18z"/>
<path d="M6905 10480 c-10 -11 -15 -23 -12 -27 4 -3 7 -1 7 6 0 7 6 11 13 8 8
-3 14 3 14 14 2 24 0 24 -22 -1z"/>
<path d="M6836 10422 c2 -3 -1 -11 -7 -19 -8 -9 -8 -13 -1 -13 16 0 26 20 15
30 -6 4 -8 5 -7 2z"/>
<path d="M4333 11292 c-1 -22 0 -24 9 -8 6 10 6 22 2 26 -5 5 -10 -3 -11 -18z"/>
<path d="M4166 11132 c-2 -4 4 -8 14 -8 10 0 16 4 14 8 -3 4 -9 8 -14 8 -5 0
-11 -4 -14 -8z"/>
<path d="M1834 10768 c-5 -7 -7 -87 -6 -178 1 -91 -2 -237 -7 -325 -10 -187
-7 -200 49 -192 42 5 72 27 101 74 28 45 28 195 1 250 -19 36 -19 37 0 92 24
66 21 167 -6 219 -28 55 -112 93 -132 60z m86 -64 c13 -32 16 -146 6 -192 -4
-18 -16 -37 -27 -42 -18 -10 -19 -6 -19 125 0 114 2 135 15 135 9 0 20 -12 25
-26z m-5 -327 c25 -38 38 -130 25 -177 -11 -41 -41 -80 -60 -80 -6 0 -10 46
-10 118 0 160 10 191 45 139z"/>
<path d="M2402 10768 c-7 -7 -12 -40 -12 -79 0 -58 4 -72 25 -96 l24 -28 1 70
c0 85 11 108 37 82 14 -14 18 -37 19 -113 2 -72 6 -101 18 -112 22 -22 27 -13
33 56 7 74 -4 155 -19 146 -7 -4 -8 -2 -4 4 11 19 -13 53 -49 68 -42 17 -57
18 -73 2z"/>
<path d="M2921 10764 c-33 -24 -51 -74 -51 -145 0 -56 6 -74 57 -175 54 -106
58 -112 75 -97 16 15 15 21 -34 115 -59 114 -70 173 -41 228 15 29 23 34 45
32 36 -4 46 17 18 40 -27 22 -39 23 -69 2z"/>
<path d="M2176 10761 c-3 -4 -10 -51 -16 -102 -14 -125 -33 -235 -71 -404 -39
-175 -38 -169 -12 -173 27 -4 38 17 47 86 10 80 13 83 55 76 70 -11 69 -10 78
-86 5 -50 13 -74 25 -82 33 -20 42 5 28 81 -6 37 -18 129 -26 203 -8 74 -18
167 -24 205 -5 39 -9 95 -10 126 0 30 -5 60 -12 67 -14 14 -54 16 -62 3z m49
-274 c8 -80 15 -163 15 -183 l0 -37 -45 6 c-26 2 -48 7 -50 9 -2 2 9 83 25
179 16 95 30 176 30 178 0 2 2 2 5 0 2 -3 11 -71 20 -152z"/>
<path d="M2778 10752 c-19 -21 -32 -65 -48 -154 -7 -38 -15 -68 -19 -68 -4 0
-15 33 -26 73 -19 75 -50 147 -63 147 -37 0 -29 -49 41 -225 24 -60 37 -112
40 -158 4 -53 10 -74 28 -95 20 -22 20 -23 3 -9 l-21 18 -6 -98 c-5 -102 2
-128 28 -102 12 12 16 55 19 219 3 185 6 214 30 295 36 127 34 203 -6 157z"/>
<path d="M3350 10758 c0 -5 -4 -6 -10 -3 -5 3 -10 2 -10 -4 0 -11 18 -24 37
-27 6 -1 19 6 28 16 15 16 14 18 -15 22 -16 3 -30 1 -30 -4z"/>
<path d="M4090 10756 c-9 -12 -9 -77 0 -288 6 -150 12 -300 13 -333 1 -46 6
-61 18 -63 18 -3 33 24 22 41 -4 6 -9 80 -11 164 -5 173 6 198 34 76 54 -244
70 -288 105 -288 20 0 15 27 -19 120 -16 44 -37 123 -46 175 l-17 95 26 48
c31 59 36 177 9 216 -30 42 -110 65 -134 37z m90 -45 c18 -35 12 -142 -12
-191 l-21 -45 -8 40 c-4 22 -8 79 -8 128 -1 80 1 87 19 87 10 0 24 -9 30 -19z"/>
<path d="M3082 10743 c2 -12 15 -20 38 -23 l35 -5 3 -102 3 -102 24 21 c23 20
25 29 25 104 l0 83 37 3 c27 2 39 8 41 21 3 15 -7 17 -103 17 -96 0 -106 -2
-103 -17z"/>
<path d="M3405 10740 c-14 -16 -15 -20 -4 -20 12 0 18 -49 32 -277 10 -153 17
-294 17 -314 0 -41 21 -57 41 -33 10 12 9 61 -4 247 -10 128 -17 264 -17 302
l0 70 37 0 c31 0 38 4 38 20 0 17 -8 20 -61 23 -50 2 -63 -1 -79 -18z"/>
<path d="M3580 10752 c0 -17 26 -32 56 -32 l31 0 7 -132 c4 -73 11 -185 17
-248 5 -63 9 -145 9 -182 0 -71 12 -91 38 -64 14 14 15 33 3 193 -7 98 -16
235 -18 304 l-5 125 36 -4 c27 -3 37 0 42 13 4 10 1 21 -7 26 -17 11 -209 12
-209 1z"/>
<path d="M3872 10748 c-17 -17 -17 -649 0 -666 19 -19 147 -16 155 3 8 24 -4
30 -60 31 l-52 0 -3 162 -2 162 32 0 c42 0 63 13 55 34 -4 11 -19 16 -47 16
l-41 0 3 108 3 107 25 -4 c58 -10 75 -7 75 14 0 34 -115 61 -143 33z"/>
<path d="M2388 10417 c-5 -373 -7 -342 24 -345 50 -6 95 25 124 84 24 48 26
63 22 133 -3 55 -11 89 -25 113 -13 23 -18 40 -12 50 6 10 2 21 -11 33 -19 17
-20 17 -39 -6 -24 -30 -30 -24 -32 34 -2 34 -8 52 -26 69 l-23 21 -2 -186z
m99 -49 c12 -23 17 -57 18 -116 0 -80 -1 -85 -28 -108 -15 -13 -32 -24 -37
-24 -5 0 -7 33 -6 73 2 39 4 102 5 140 1 77 18 90 48 35z"/>
<path d="M3183 10518 c-21 -23 -23 -33 -25 -203 -2 -132 -6 -180 -15 -180 -18
0 -36 -22 -29 -34 8 -12 143 -15 170 -5 9 3 16 12 16 19 0 16 -22 25 -61 25
l-29 0 -2 201 -3 201 -22 -24z"/>
<path d="M6090 10391 c0 -7 -4 -10 -9 -6 -6 3 -15 -4 -21 -16 -8 -15 -9 -19
-1 -15 6 4 11 2 11 -4 0 -7 -15 -9 -40 -6 -22 2 -38 1 -35 -4 3 -5 -1 -11 -7
-13 -9 -4 -8 -6 3 -6 8 -1 21 5 28 12 11 10 13 9 8 -5 -5 -13 -1 -18 14 -18
13 0 18 4 13 12 -5 8 -2 9 10 5 14 -6 17 -2 14 16 -2 12 4 27 12 34 8 6 12 15
7 19 -4 4 -7 2 -7 -5z"/>
<path d="M3000 10335 c-7 -8 -13 -46 -15 -84 -3 -95 -27 -136 -79 -135 -32 0
-37 -2 -34 -20 2 -14 12 -22 28 -25 l25 -3 -20 23 -20 24 26 -22 c27 -25 45
-30 33 -11 -4 7 -3 8 5 4 19 -12 59 39 77 99 11 39 13 72 9 110 -8 57 -14 65
-35 40z"/>
<path d="M5960 10339 c0 -5 5 -7 10 -4 6 3 10 8 10 11 0 2 -4 4 -10 4 -5 0
-10 -5 -10 -11z"/>
<path d="M7882 10090 c0 -14 2 -19 5 -12 2 6 2 18 0 25 -3 6 -5 1 -5 -13z"/>
<path d="M6550 9770 c-10 -23 -10 -37 -2 -55 16 -34 47 -32 62 4 18 44 10 75
-21 79 -21 2 -29 -3 -39 -28z"/>
<path d="M6820 9671 c-13 -24 -13 -71 0 -91 22 -35 68 35 56 85 -8 30 -41 33
-56 6z"/>
<path d="M6590 9511 c0 -6 10 -22 23 -37 18 -21 33 -27 65 -28 49 -1 55 16 10
27 -17 5 -43 17 -56 28 -27 21 -42 24 -42 10z"/>
<path d="M7320 9094 c14 -8 17 -13 7 -10 -12 4 -28 -6 -50 -31 -18 -20 -31
-40 -30 -44 2 -5 -4 -6 -12 -3 -9 4 -15 0 -15 -10 0 -9 -7 -16 -16 -16 -9 0
-12 -5 -8 -12 4 -6 3 -8 -3 -5 -6 4 -40 -10 -75 -32 -62 -37 -153 -81 -169
-81 -4 0 -20 -5 -36 -12 -15 -6 -32 -10 -36 -9 -5 1 -5 -4 -1 -10 5 -8 0 -10
-17 -7 -13 3 -35 2 -49 -2 -23 -7 -22 -8 10 -10 27 -1 30 -3 16 -9 -31 -12
128 -45 215 -44 96 1 153 25 213 88 46 47 92 145 100 210 4 31 1 37 -24 50
-38 20 -52 19 -20 -1z m-216 -199 c-10 -8 -23 -15 -28 -15 -6 0 -1 7 10 15 10
8 23 15 28 15 6 0 1 -7 -10 -15z m-77 -41 c-3 -3 -12 -4 -19 -1 -8 3 -5 6 6 6
11 1 17 -2 13 -5z m-137 -64 c-8 -5 -19 -10 -25 -10 -5 0 -3 5 5 10 8 5 20 10
25 10 6 0 3 -5 -5 -10z"/>
<path d="M7531 8958 c13 -45 49 -328 50 -391 0 -30 3 -45 7 -34 10 24 3 -191
-8 -288 -10 -77 -32 -159 -50 -180 -14 -16 -39 -98 -34 -107 3 -4 0 -8 -5 -8
-6 0 -28 -35 -48 -77 -20 -43 -47 -99 -60 -124 -27 -55 -29 -82 -7 -100 9 -7
13 -21 10 -34 -4 -14 2 -30 16 -45 19 -20 20 -23 4 -17 -15 6 -17 3 -13 -15 3
-13 9 -41 13 -63 6 -32 9 -36 15 -20 6 17 8 17 8 3 1 -22 14 -23 31 -3 11 14
7 19 -12 16 -15 -2 4 25 30 43 l27 19 -24 -26 c-14 -15 -20 -27 -14 -27 5 0
20 11 32 24 13 13 32 27 44 29 16 4 7 -8 -28 -40 -27 -26 -45 -43 -38 -40 6 4
15 2 19 -4 4 -7 3 -9 -4 -5 -6 3 -13 2 -17 -4 -3 -5 -1 -11 4 -11 6 -1 16 -2
21 -3 6 0 10 -5 10 -11 0 -5 -18 -10 -39 -10 -22 0 -43 -3 -47 -7 -4 -5 -2 -8
4 -8 7 0 11 -8 10 -17 -3 -39 2 -64 12 -58 7 4 9 -3 5 -22 l-6 -28 15 30 c17
36 19 32 6 -14 -11 -40 8 -140 23 -119 5 8 7 1 3 -20 -4 -21 -2 -31 5 -27 6 4
8 -3 4 -22 -5 -22 -4 -25 5 -13 9 12 11 10 6 -10 -6 -31 18 -121 27 -100 4 8
4 -1 1 -20 -4 -27 -3 -32 6 -20 9 12 10 12 6 -5 -7 -23 19 -116 26 -95 3 10 6
7 10 -8 4 -12 2 -20 -3 -16 -13 8 -11 -3 10 -71 16 -48 19 -54 20 -30 1 22 4
26 10 16 5 -8 6 -24 1 -36 -9 -24 -2 -77 10 -70 12 8 22 -29 14 -50 -6 -13 -4
-16 5 -10 10 5 11 2 6 -14 -3 -11 -3 -21 2 -21 4 0 9 -12 9 -26 1 -14 10 -35
20 -46 11 -12 14 -19 8 -15 -7 4 -9 -2 -6 -19 3 -19 7 -22 13 -12 6 8 9 0 9
-25 0 -23 4 -36 10 -32 5 3 9 -2 8 -12 -3 -35 2 -54 12 -48 5 3 7 0 4 -8 -2
-7 1 -27 7 -43 7 -16 13 -35 15 -42 1 -8 6 -17 10 -20 4 -4 4 1 1 11 -4 12 -3
16 4 11 6 -3 8 -15 6 -26 -3 -11 -1 -33 5 -50 8 -23 13 -27 20 -16 7 9 8 4 3
-15 -4 -20 -2 -27 6 -22 7 5 9 1 7 -11 -3 -11 4 -35 13 -55 10 -20 15 -39 12
-43 -4 -3 -2 -6 3 -6 5 0 9 -33 10 -74 1 -77 19 -140 37 -129 6 4 8 0 4 -9 -6
-17 65 -93 76 -82 4 4 7 3 7 -2 0 -5 14 -18 30 -27 17 -10 30 -25 30 -33 0 -8
5 -14 11 -14 5 0 8 -4 5 -9 -8 -13 4 -42 15 -35 5 3 7 -1 4 -8 -7 -18 40 -130
50 -120 5 4 5 2 1 -5 -4 -7 1 -27 11 -45 9 -18 17 -37 18 -43 1 -27 39 -104
48 -98 6 3 7 1 3 -6 -10 -15 25 -92 37 -84 6 3 7 1 3 -6 -10 -15 24 -102 36
-95 6 4 7 -2 3 -16 -5 -17 -4 -21 5 -15 8 5 11 4 6 -3 -8 -13 44 -133 55 -126
5 3 6 -2 3 -10 -5 -12 1 -14 28 -10 42 7 88 -25 88 -63 0 -17 4 -23 14 -20 7
3 30 -8 50 -25 52 -43 50 -79 -9 -140 l-45 -47 17 -35 c12 -26 19 -33 26 -24
6 9 7 8 3 -5 -7 -22 44 -128 57 -120 6 3 7 1 4 -5 -4 -5 -4 -18 0 -28 6 -16 7
-16 15 2 7 16 8 15 4 -5 -3 -13 4 -41 15 -62 20 -39 34 -53 22 -22 -4 10 -2
14 4 10 6 -4 22 11 36 35 14 24 50 76 80 117 32 44 53 81 49 89 -3 9 -1 13 5
9 19 -12 33 16 19 35 -7 10 -16 15 -20 11 -4 -4 -4 1 0 11 5 13 4 17 -3 13 -6
-4 -10 1 -9 11 0 9 -5 16 -12 14 -8 -1 -11 2 -7 9 8 12 -24 79 -38 79 -4 0 -6
4 -3 9 3 5 -1 12 -10 15 -8 3 -13 10 -10 15 9 14 -5 42 -17 34 -6 -3 -7 -1 -3
6 4 6 -2 24 -13 40 -11 15 -18 30 -15 33 2 3 -3 11 -11 18 -14 11 -20 10 -42
-12 l-26 -26 37 -36 c20 -20 36 -39 36 -43 0 -3 -9 -13 -20 -23 -19 -16 -23
-13 -120 84 -55 55 -100 105 -100 111 0 14 108 119 130 127 12 4 12 8 4 19 -7
8 -41 71 -76 141 -36 70 -69 124 -73 120 -5 -4 -5 -2 -1 5 3 6 -28 78 -69 159
l-76 147 21 22 c21 22 27 41 10 30 -6 -3 -7 1 -4 9 3 9 10 13 15 10 19 -11 -2
141 -28 198 -13 31 -19 36 -30 26 -8 -6 -12 -20 -9 -31 4 -15 2 -17 -7 -8 -8
8 -7 18 6 40 17 30 9 50 -15 35 -7 -5 -8 -3 -3 5 8 14 -30 55 -44 47 -5 -3
-12 10 -15 29 -4 20 -11 33 -17 30 -5 -4 -9 7 -9 23 0 37 -19 92 -32 92 -5 0
-6 10 -3 23 5 18 4 19 -5 7 -10 -12 -11 -11 -7 8 7 31 -14 96 -26 80 -6 -9 -7
-8 -3 5 8 24 -12 103 -30 118 -8 6 -14 17 -14 23 0 6 5 4 11 -4 8 -12 9 -11 5
5 -3 11 -8 33 -12 49 l-7 29 -12 -24 c-11 -20 -13 -15 -9 41 2 45 0 60 -6 50
-8 -11 -10 -8 -8 15 2 44 -12 95 -25 92 -6 -1 -13 9 -15 22 -2 13 1 21 6 17 5
-3 5 14 -2 42 -10 46 -11 46 -18 17 -5 -24 -6 -20 -5 18 1 26 -1 47 -5 47 -4
0 -5 15 -3 33 4 25 3 28 -4 12 -7 -15 -9 -9 -9 29 0 29 -5 51 -12 56 -7 4 -10
15 -7 24 4 9 -2 44 -13 79 -11 34 -20 76 -20 92 0 30 -25 146 -37 175 -3 8 -7
34 -8 58 -3 49 -12 63 -26 42 -7 -11 -8 -6 -3 15 4 17 7 32 6 35 0 23 -3 30
-12 25 -5 -3 -10 -2 -10 4 0 5 5 11 11 13 7 2 8 22 3 58 -6 43 -9 50 -16 35
-6 -14 -7 -9 -4 18 3 20 1 37 -3 37 -4 0 -5 16 -3 35 2 19 -1 42 -8 50 -6 8
-9 19 -5 25 3 6 0 24 -9 40 -8 17 -10 30 -5 30 12 0 12 37 -1 45 -5 3 -7 20
-5 38 l5 32 -11 -34 c-14 -45 -20 -35 -9 14 5 23 5 44 0 50 -5 6 -7 21 -3 33
3 12 2 52 -2 88 -6 56 -9 63 -19 48 -11 -14 -12 -7 -6 37 4 30 6 57 4 61 -3 4
-7 46 -10 95 -4 50 -12 98 -21 111 -10 17 -13 44 -9 110 3 54 2 74 -3 52 -5
-24 -8 -3 -7 70 0 82 -3 112 -17 135 l-17 30 5 -30 c5 -28 5 -29 -5 -6 -6 14
-8 31 -6 38 5 13 -3 16 -34 14 -10 0 -11 1 -2 5 19 9 14 21 -17 44 l-30 20 10
-32z m24 -8 c3 -5 1 -10 -4 -10 -6 0 -11 5 -11 10 0 6 2 10 4 10 3 0 8 -4 11
-10z m62 -152 c-3 -8 -6 -5 -6 6 -1 11 2 17 5 13 3 -3 4 -12 1 -19z m-7 -28
c0 -5 -4 -10 -10 -10 -5 0 -10 5 -10 10 0 6 5 10 10 10 6 0 10 -4 10 -10z m7
-192 c-3 -8 -6 -5 -6 6 -1 11 2 17 5 13 3 -3 4 -12 1 -19z m90 -450 c-3 -8 -6
-5 -6 6 -1 11 2 17 5 13 3 -3 4 -12 1 -19z m-10 -210 c-3 -8 -6 -5 -6 6 -1 11
2 17 5 13 3 -3 4 -12 1 -19z m-227 -378 c0 -5 -5 -10 -11 -10 -5 0 -7 5 -4 10
3 6 8 10 11 10 2 0 4 -4 4 -10z m-53 -42 c-3 -8 -6 -5 -6 6 -1 11 2 17 5 13 3
-3 4 -12 1 -19z m370 -80 c-3 -7 -5 -2 -5 12 0 14 2 19 5 13 2 -7 2 -19 0 -25z
m-290 -190 c-3 -7 -5 -2 -5 12 0 14 2 19 5 13 2 -7 2 -19 0 -25z m360 -10 c-3
-8 -6 -5 -6 6 -1 11 2 17 5 13 3 -3 4 -12 1 -19z m10 -180 c-3 -8 -6 -5 -6 6
-1 11 2 17 5 13 3 -3 4 -12 1 -19z m-207 -327 c4 -22 3 -46 -1 -53 -6 -8 -9 2
-9 29 0 23 -3 50 -7 60 -3 10 -3 15 2 11 4 -4 11 -25 15 -47z m367 -303 c-3
-7 -5 -2 -5 12 0 14 2 19 5 13 2 -7 2 -19 0 -25z m-20 -20 c-3 -8 -6 -5 -6 6
-1 11 2 17 5 13 3 -3 4 -12 1 -19z m-217 -148 c0 -5 -2 -10 -4 -10 -3 0 -8 5
-11 10 -3 6 -1 10 4 10 6 0 11 -4 11 -10z m24 -36 c3 -8 2 -12 -4 -9 -6 3 -10
10 -10 16 0 14 7 11 14 -7z m25 -74 c0 -9 -4 -8 -9 5 -5 11 -9 27 -9 35 0 9 4
8 9 -5 5 -11 9 -27 9 -35z m298 18 c-3 -8 -6 -5 -6 6 -1 11 2 17 5 13 3 -3 4
-12 1 -19z m-257 -146 c0 -15 -2 -15 -10 -2 -13 20 -13 33 0 25 6 -3 10 -14
10 -23z m27 -4 c-3 -8 -6 -5 -6 6 -1 11 2 17 5 13 3 -3 4 -12 1 -19z m386 -93
c4 -8 3 -16 -1 -19 -4 -3 -9 4 -9 15 -2 23 3 25 10 4z m-376 -37 c-3 -8 -6 -5
-6 6 -1 11 2 17 5 13 3 -3 4 -12 1 -19z m-20 -10 c-3 -8 -6 -5 -6 6 -1 11 2
17 5 13 3 -3 4 -12 1 -19z m11 -65 c0 -28 -2 -33 -8 -18 -6 17 -3 55 5 55 2 0
3 -17 3 -37z m785 -998 c-3 -9 -8 -14 -10 -11 -3 3 -2 9 2 15 9 16 15 13 8 -4z"/>
<path d="M7663 8555 c0 -22 2 -30 4 -17 2 12 2 30 0 40 -3 9 -5 -1 -4 -23z"/>
<path d="M5159 8312 c-79 -52 -185 -145 -200 -177 -10 -20 -10 -20 5 -1 9 11
16 15 16 9 0 -5 -9 -18 -20 -28 -19 -17 -29 -52 -12 -41 4 2 6 -12 3 -32 -3
-30 -5 -33 -12 -17 l-8 20 0 -20 c-1 -37 20 -96 31 -89 7 5 9 2 6 -8 -16 -40
102 -129 174 -130 22 0 35 -4 28 -8 -20 -12 25 -19 66 -10 49 11 75 2 43 -16
-22 -12 -21 -13 16 -8 32 3 36 2 20 -6 -17 -8 -15 -9 11 -5 21 4 35 1 44 -10
9 -11 22 -14 37 -10 14 3 23 1 23 -6 0 -7 12 -10 29 -7 17 2 28 1 25 -3 -2 -4
10 -7 28 -7 18 0 44 -3 57 -7 19 -6 22 -5 16 5 -6 10 -4 11 11 5 10 -5 29 -9
42 -9 12 -1 22 -4 22 -8 0 -5 54 -8 120 -8 89 0 120 3 121 13 0 6 7 -1 14 -18
9 -20 10 -36 3 -48 -5 -10 -6 -27 -3 -38 4 -12 0 -30 -10 -45 -13 -20 -14 -28
-4 -40 9 -11 8 -14 -3 -14 -7 0 -28 -24 -46 -52 -18 -29 -59 -87 -92 -128
-213 -269 -313 -464 -354 -691 -35 -193 -47 -604 -26 -939 5 -85 10 -177 11
-205 1 -27 5 -56 7 -64 3 -8 222 204 558 540 539 539 553 554 536 574 -16 19
-16 20 3 2 19 -17 28 -9 325 285 l305 303 -303 -305 -302 -305 57 -60 58 -60
-60 57 -60 58 -558 -558 -558 -558 20 -199 c12 -110 30 -285 41 -390 96 -903
112 -1042 125 -1068 9 -16 10 -25 3 -21 -8 5 -9 -4 -5 -32 3 -21 11 -88 17
-149 7 -60 16 -114 21 -120 5 -5 9 -18 10 -30 0 -20 0 -20 10 0 6 15 8 10 4
-20 -5 -51 15 -221 25 -204 4 6 8 -8 7 -32 -1 -104 3 -144 14 -129 8 12 9 10
4 -7 -3 -12 -1 -57 6 -100 7 -43 15 -105 18 -138 4 -40 10 -59 19 -58 7 2 12
-8 12 -25 0 -21 -2 -24 -10 -12 -8 13 -10 12 -10 -2 0 -10 4 -18 10 -18 5 0 8
-19 8 -42 -2 -49 22 -240 31 -248 3 -3 6 -21 6 -40 0 -31 4 -36 30 -41 l30 -7
-30 -2 c-29 -2 -29 -2 -5 -9 24 -7 24 -7 -7 -14 -31 -6 -33 -9 -33 -49 0 -63
10 -73 53 -57 20 7 34 16 31 20 -2 4 1 11 7 15 8 5 9 3 4 -5 -5 -9 -2 -12 11
-9 11 2 18 11 16 19 -2 8 0 10 4 6 4 -4 43 27 86 70 56 56 75 80 67 89 -7 8
-6 15 2 20 7 4 9 3 5 -4 -3 -6 -2 -13 3 -16 11 -7 25 21 29 63 1 7 8 11 17 8
8 -4 17 -2 20 3 4 6 1 11 -4 11 -6 1 -15 2 -21 3 -5 0 -10 4 -10 9 0 4 0 10 0
14 0 4 5 2 12 -5 15 -15 31 -16 22 0 -5 7 -3 8 6 3 8 -5 19 -1 28 11 13 16 14
17 9 1 -6 -16 -5 -16 17 -1 16 10 26 12 31 4 3 -6 11 -8 16 -4 5 3 6 11 2 17
-4 7 -8 15 -8 19 0 3 -3 10 -7 14 -4 3 -6 -3 -3 -14 3 -16 -1 -20 -17 -17 -11
3 -23 7 -27 11 -3 4 2 4 11 1 10 -3 20 -2 23 3 4 6 1 11 -4 11 -6 1 -15 2 -21
3 -5 0 -10 4 -10 9 0 4 0 10 0 14 0 4 5 2 12 -5 13 -13 32 -16 24 -4 -2 4 4 8
14 8 10 0 16 -5 13 -11 -4 -5 3 -2 14 8 18 16 22 34 27 140 13 269 14 357 2
350 -6 -3 -5 0 2 8 15 16 16 29 1 29 -5 0 -7 -5 -3 -12 4 -6 3 -8 -4 -4 -5 3
-13 0 -16 -6 -3 -8 -4 -6 -3 3 1 9 -9 26 -23 38 -21 17 -23 22 -10 31 8 5 11
10 6 10 -5 0 -19 -8 -30 -17 -16 -14 -18 -15 -8 -2 17 23 -7 45 -28 26 -8 -6
-7 -3 3 9 9 11 17 25 17 30 0 5 -5 2 -10 -6 -8 -13 -12 -13 -27 3 -16 15 -16
19 -3 27 8 5 11 10 6 10 -5 0 -19 -8 -30 -18 -16 -13 -18 -14 -8 -1 17 23 -7
45 -28 26 -8 -6 -7 -3 3 9 9 11 17 25 17 30 0 5 -5 2 -10 -6 -8 -13 -12 -13
-27 3 -16 15 -16 19 -3 27 8 5 11 10 6 10 -5 0 -19 -8 -30 -18 -16 -13 -18
-14 -8 -1 10 13 10 19 -2 28 -10 8 -16 9 -21 1 -3 -6 -11 -7 -17 -4 -6 4 -15
0 -20 -7 -7 -11 -11 -11 -15 -1 -7 19 -26 14 -19 -5 4 -10 3 -14 -1 -9 -15 15
-10 52 8 52 9 0 15 -6 12 -13 -3 -7 4 -11 19 -9 30 3 48 14 48 29 0 7 -4 6
-10 -3 -9 -12 -15 -9 -40 20 -16 19 -30 30 -30 23 0 -7 -7 -10 -17 -7 -14 5
-15 4 -4 -4 8 -6 21 -8 30 -5 12 5 13 3 5 -6 -9 -10 -17 -10 -32 -2 -10 6 -22
7 -26 4 -3 -3 -6 0 -6 7 0 11 -3 11 -12 2 -9 -9 -14 -7 -24 6 -8 9 -13 22 -14
27 0 6 5 3 10 -5 10 -16 60 -24 60 -10 0 5 8 7 18 3 9 -3 -5 18 -33 48 l-50
54 61 -58 c33 -32 63 -54 67 -51 4 4 7 2 7 -5 0 -7 5 -9 10 -6 6 4 9 1 8 -6
-2 -7 3 -14 10 -15 6 -1 14 -3 17 -4 3 -1 9 -3 14 -4 12 -1 26 -15 27 -27 1
-5 3 -11 4 -14 1 -3 3 -11 4 -17 0 -7 7 -14 14 -14 6 -1 14 -3 17 -4 3 -1 9
-3 14 -4 12 -1 26 -15 27 -27 1 -5 3 -11 4 -14 1 -3 3 -11 4 -17 0 -7 7 -14
14 -14 6 -1 14 -3 17 -4 3 -1 9 -3 14 -4 12 -1 26 -15 27 -27 1 -5 3 -11 4
-14 1 -3 3 -9 4 -15 3 -23 21 -13 26 15 l6 30 5 -32 c3 -18 2 -30 -2 -27 -13
8 -22 -17 -10 -29 8 -8 11 -8 11 2 0 7 4 10 9 7 5 -3 9 11 9 32 -1 20 2 100 6
177 6 100 5 136 -3 125 -7 -9 -11 -11 -11 -3 0 7 6 16 14 20 14 8 23 161 41
683 3 85 12 328 20 540 8 212 20 540 26 730 6 190 14 390 18 445 l6 100 33
-90 c84 -230 136 -377 159 -450 24 -76 208 -581 258 -710 33 -85 217 -560 287
-745 33 -85 72 -189 88 -230 119 -309 116 -304 141 -311 16 -5 18 -7 7 -8 -23
-1 -24 -37 -2 -45 12 -5 14 -14 10 -34 -5 -20 -4 -23 4 -12 8 13 10 13 10 -2
0 -9 3 -18 8 -21 4 -2 1 -2 -5 -1 -7 2 -13 -1 -13 -6 0 -6 5 -10 11 -10 6 0 8
-7 5 -16 -4 -9 0 -22 8 -28 8 -6 17 -22 21 -36 5 -20 4 -22 -5 -10 -11 13 -11
13 -7 0 2 -8 12 -41 21 -72 9 -31 21 -60 27 -63 5 -4 7 -15 4 -25 -4 -12 2
-27 14 -39 12 -12 17 -21 11 -21 -5 0 -10 -8 -10 -17 0 -16 2 -16 11 -3 9 12
10 12 5 -3 -3 -11 5 -56 18 -100 14 -45 28 -97 31 -116 5 -24 10 -30 16 -20 5
8 4 15 -1 17 -6 2 -10 8 -10 14 0 7 5 6 14 -2 11 -8 12 -18 6 -35 -5 -14 -5
-38 1 -60 l10 -37 35 59 c20 32 39 60 42 63 20 14 73 112 69 125 -4 9 -1 12 9
8 13 -5 19 8 15 30 -1 5 3 6 8 3 12 -8 22 20 15 42 -5 13 -4 14 4 3 11 -15 27
2 17 19 -4 6 1 7 11 3 12 -4 15 -3 10 5 -4 7 6 25 24 42 16 16 30 34 30 40 0
20 32 60 43 53 6 -4 1 10 -11 31 -12 21 -19 42 -16 48 4 6 0 15 -7 20 -12 8
-11 9 1 5 8 -2 23 6 32 19 21 25 23 38 6 28 -7 -4 -8 -3 -4 5 4 6 11 9 16 6 5
-3 14 4 21 16 9 17 8 24 -2 31 -11 8 -10 9 3 5 20 -7 53 27 42 44 -4 8 -3 10
4 5 7 -4 12 -1 12 9 0 9 -4 14 -9 10 -6 -3 -8 9 -4 29 3 19 2 43 -2 53 -5 10
-7 24 -6 32 1 8 -2 10 -9 6 -9 -6 -9 -2 -1 12 8 16 2 65 -24 204 -42 229 -72
385 -90 469 -8 36 -31 144 -50 240 -165 803 -337 1488 -530 2105 -115 368
-166 567 -180 708 -5 49 -4 67 5 67 6 0 10 6 8 12 -3 7 4 19 14 28 16 13 18
20 9 45 -11 29 -10 29 5 10 16 -19 16 -19 9 5 -9 29 -25 50 -25 31 0 -9 -5 -8
-16 4 -11 11 -26 14 -50 9 -30 -5 -34 -4 -34 15 0 20 -5 21 -80 21 -73 0 -80
-2 -80 -20 0 -17 -7 -20 -40 -20 l-40 0 0 60 0 60 -65 0 c-37 0 -65 4 -65 10
0 6 -6 10 -14 10 -8 0 -17 6 -19 13 -3 6 -6 1 -7 -13 -2 -22 -3 -21 -11 9 -13
45 -19 36 -10 -15 10 -53 3 -112 -11 -93 -7 11 -8 9 -4 -4 3 -10 6 -26 6 -34
0 -11 7 -14 27 -10 24 4 26 4 10 -8 -20 -14 -22 -36 -4 -54 10 -11 9 -13 -3
-9 -8 3 -16 17 -18 31 -2 15 -9 27 -17 27 -7 0 -16 6 -18 13 -3 7 -6 5 -6 -5
-1 -10 3 -18 8 -18 5 0 11 -10 14 -22 6 -22 5 -22 -8 -4 -22 30 -27 14 -11
-35 23 -71 27 -109 16 -150 -17 -63 -75 -96 -157 -91 -25 2 -93 58 -93 77 0 7
-13 29 -29 49 -39 48 -48 81 -56 194 -4 51 -10 105 -15 121 -4 16 -4 35 2 45
6 10 6 22 1 29 -5 7 -10 30 -12 52 -1 22 -4 52 -7 66 -3 17 1 31 12 40 12 9
15 10 10 2 -5 -10 -1 -11 20 -3 15 6 43 13 63 16 46 6 149 56 178 86 102 105
122 167 89 277 -15 51 -29 60 -55 37 -10 -9 -21 -13 -26 -9 -4 5 -5 3 -2 -4 5
-7 -11 -17 -45 -29 -49 -16 -66 -17 -61 -4 14 42 14 60 0 60 -18 0 -120 -80
-112 -88 3 -4 11 0 16 8 9 12 10 12 5 -3 -3 -10 -6 -20 -6 -22 0 -2 -15 -1
-32 1 -18 3 -89 -1 -158 -9 -83 -9 -148 -12 -195 -6 -38 4 -78 6 -87 3 -10 -3
-18 -1 -18 4 0 15 -94 24 -126 12 -25 -9 -27 -8 -12 3 15 12 11 14 -32 23 -34
7 -47 7 -43 0 4 -6 0 -5 -8 1 -9 7 -51 24 -95 39 -43 14 -104 37 -134 51 -30
14 -69 31 -87 39 -23 10 -36 27 -49 59 -15 41 -34 60 -34 35 0 -5 -5 -10 -11
-10 -5 0 -7 5 -4 10 8 13 5 12 -26 -8z m16 -12 c-3 -5 -12 -10 -18 -10 -7 0
-6 4 3 10 19 12 23 12 15 0z m-171 -146 c3 -8 2 -12 -4 -9 -6 3 -10 10 -10 16
0 14 7 11 14 -7z m1406 -4 c0 -5 -5 -10 -11 -10 -5 0 -7 5 -4 10 3 6 8 10 11
10 2 0 4 -4 4 -10z m60 -60 c0 -5 -8 -10 -17 -10 -15 0 -16 2 -3 10 19 12 20
12 20 0z m-700 -30 c11 -8 7 -9 -15 -4 -37 8 -45 14 -19 14 10 0 26 -5 34 -10z
m675 -8 c-3 -3 -11 0 -18 7 -9 10 -8 11 6 5 10 -3 15 -9 12 -12z m-180 -2
c-17 -6 -55 -3 -55 5 0 2 17 3 38 3 27 0 32 -2 17 -8z m-1238 -142 c-3 -7 -5
-2 -5 12 0 14 2 19 5 13 2 -7 2 -19 0 -25z m-27 12 c0 -5 -4 -10 -10 -10 -5 0
-10 5 -10 10 0 6 5 10 10 10 6 0 10 -4 10 -10z m15 -38 c6 -4 17 -16 25 -27
11 -15 7 -14 -15 5 -17 14 -32 26 -34 28 -2 1 0 2 5 2 5 0 14 -4 19 -8z m1509
-10 c-5 -4 -17 -15 -26 -24 -15 -16 -16 -16 -14 5 1 16 8 23 25 24 13 0 20 -2
15 -5z m-1414 -12 c-8 -5 -19 -10 -25 -10 -5 0 -3 5 5 10 8 5 20 10 25 10 6 0
3 -5 -5 -10z m-10 -35 c14 -8 19 -14 10 -14 -8 0 -24 6 -34 14 -25 19 -9 19
24 0z m1330 -5 c0 -5 -5 -10 -11 -10 -5 0 -7 5 -4 10 3 6 8 10 11 10 2 0 4 -4
4 -10z m-240 -30 c0 -5 -2 -10 -4 -10 -3 0 -8 5 -11 10 -3 6 -1 10 4 10 6 0
11 -4 11 -10z m55 -10 c3 -6 -1 -7 -9 -4 -18 7 -21 14 -7 14 6 0 13 -4 16 -10z
m130 0 c-16 -4 -41 -8 -55 -8 -22 0 -22 1 5 8 17 4 41 8 55 8 22 0 22 -1 -5
-8z m-88 -16 c-3 -3 -12 -4 -19 -1 -8 3 -5 6 6 6 11 1 17 -2 13 -5z m-60 -10
c-3 -3 -12 -4 -19 -1 -8 3 -5 6 6 6 11 1 17 -2 13 -5z m-17 -50 c13 -33 13
-54 0 -54 -5 0 -10 13 -10 29 0 17 -5 33 -11 37 -8 5 -10 -6 -7 -35 2 -22 0
-41 -4 -41 -5 0 -8 9 -8 20 0 17 -6 20 -42 19 l-43 -2 40 -7 40 -6 -30 -8
c-58 -14 -64 -14 -58 0 4 10 -4 14 -32 14 -20 0 -34 4 -31 9 6 8 110 26 132
23 6 -1 17 5 24 13 18 22 29 19 40 -11z m-353 -6 c-3 -8 -6 -5 -6 6 -1 11 2
17 5 13 3 -3 4 -12 1 -19z m33 7 c0 -8 -4 -15 -10 -15 -5 0 -7 7 -4 15 4 8 8
15 10 15 2 0 4 -7 4 -15z m110 -30 c0 -8 -6 -15 -14 -15 -20 0 -29 17 -14 23
22 9 28 7 28 -8z m630 -225 c-6 -42 -8 -47 -9 -20 -1 34 8 84 14 78 2 -2 0
-28 -5 -58z m-573 24 c-3 -3 -12 -4 -19 -1 -8 3 -5 6 6 6 11 1 17 -2 13 -5z
m158 -24 c8 -13 -15 -13 -35 0 -12 8 -11 10 7 10 12 0 25 -4 28 -10z m-35 -15
c47 -18 27 -18 -30 -1 -25 8 -36 15 -25 15 11 0 36 -7 55 -14z m540 -44 c0
-18 -18 -21 -30 -6 -10 13 -9 15 9 15 11 0 21 -4 21 -9z m430 -71 c0 -5 -5
-10 -11 -10 -5 0 -7 5 -4 10 3 6 8 10 11 10 2 0 4 -4 4 -10z m-375 -15 c26
-12 27 -14 5 -9 -14 3 -35 6 -47 7 -12 0 -19 5 -17 9 7 11 24 9 59 -7z m173 8
c-10 -2 -26 -2 -35 0 -10 3 -2 5 17 5 19 0 27 -2 18 -5z m89 -9 c-3 -3 -12 -4
-19 -1 -8 3 -5 6 6 6 11 1 17 -2 13 -5z m-28 -20 c2 -2 -12 -4 -31 -4 -20 0
-38 -5 -40 -11 -3 -9 -9 -9 -25 0 -12 6 -30 8 -40 5 -10 -3 -7 2 7 10 18 11
39 14 75 9 28 -3 52 -7 54 -9z m-1179 -91 c0 -8 -9 0 -50 45 l-45 47 48 -45
c26 -24 47 -45 47 -47z m1226 50 c-2 -2 -11 0 -20 3 -14 5 -15 9 -5 15 12 7
34 -10 25 -18z m-1176 -98 c19 -19 32 -35 29 -35 -3 0 -20 16 -39 35 -19 19
-32 35 -29 35 3 0 20 -16 39 -35z m80 -80 c19 -19 32 -35 29 -35 -3 0 -20 16
-39 35 -19 19 -32 35 -29 35 3 0 20 -16 39 -35z m80 -80 c19 -19 32 -35 29
-35 -3 0 -20 16 -39 35 -19 19 -32 35 -29 35 3 0 20 -16 39 -35z m80 -80 c19
-19 32 -35 29 -35 -3 0 -20 16 -39 35 -19 19 -32 35 -29 35 3 0 20 -16 39 -35z
m80 -80 c19 -19 32 -35 29 -35 -3 0 -20 16 -39 35 -19 19 -32 35 -29 35 3 0
20 -16 39 -35z m80 -80 c19 -19 32 -35 29 -35 -3 0 -20 16 -39 35 -19 19 -32
35 -29 35 3 0 20 -16 39 -35z m80 -80 c19 -19 32 -35 29 -35 -3 0 -20 16 -39
35 -19 19 -32 35 -29 35 3 0 20 -16 39 -35z m80 -80 c19 -19 32 -35 29 -35 -3
0 -20 16 -39 35 -19 19 -32 35 -29 35 3 0 20 -16 39 -35z m240 -240 c19 -19
32 -35 29 -35 -3 0 -20 16 -39 35 -19 19 -32 35 -29 35 3 0 20 -16 39 -35z
m80 -80 c19 -19 32 -35 29 -35 -3 0 -20 16 -39 35 -19 19 -32 35 -29 35 3 0
20 -16 39 -35z m80 -80 c19 -19 32 -35 29 -35 -3 0 -20 16 -39 35 -19 19 -32
35 -29 35 3 0 20 -16 39 -35z m80 -80 c19 -19 32 -35 29 -35 -3 0 -20 16 -39
35 -19 19 -32 35 -29 35 3 0 20 -16 39 -35z m80 -80 c19 -19 32 -35 29 -35 -3
0 -20 16 -39 35 -19 19 -32 35 -29 35 3 0 20 -16 39 -35z m80 -80 c19 -19 32
-35 29 -35 -3 0 -20 16 -39 35 -19 19 -32 35 -29 35 3 0 20 -16 39 -35z m80
-80 c19 -19 32 -35 29 -35 -3 0 -20 16 -39 35 -19 19 -32 35 -29 35 3 0 20
-16 39 -35z m80 -80 c19 -19 32 -35 29 -35 -3 0 -20 16 -39 35 -19 19 -32 35
-29 35 3 0 20 -16 39 -35z m80 -80 c19 -19 32 -35 29 -35 -3 0 -20 16 -39 35
-19 19 -32 35 -29 35 3 0 20 -16 39 -35z m80 -80 c19 -19 32 -35 29 -35 -3 0
-20 16 -39 35 -19 19 -32 35 -29 35 3 0 20 -16 39 -35z m80 -80 c19 -19 32
-35 29 -35 -3 0 -20 16 -39 35 -19 19 -32 35 -29 35 3 0 20 -16 39 -35z m76
-77 l29 -33 -32 29 c-31 28 -38 36 -30 36 2 0 16 -15 33 -32z m-141 -1808
c-66 -66 -122 -120 -125 -120 -2 0 49 54 115 120 66 66 122 120 125 120 2 0
-49 -54 -115 -120z m-1765 -5 c19 -19 32 -35 29 -35 -3 0 -20 16 -39 35 -19
19 -32 35 -29 35 3 0 20 -16 39 -35z m80 -80 c19 -19 32 -35 29 -35 -3 0 -20
16 -39 35 -19 19 -32 35 -29 35 3 0 20 -16 39 -35z m80 -80 c19 -19 32 -35 29
-35 -3 0 -20 16 -39 35 -19 19 -32 35 -29 35 3 0 20 -16 39 -35z m2174 -71
c30 -29 19 -33 -14 -4 -13 11 -18 20 -12 20 6 0 18 -7 26 -16z m-47 -10 c-3
-3 -12 -4 -19 -1 -8 3 -5 6 6 6 11 1 17 -2 13 -5z m-2230 -40 c-3 -3 -12 -4
-19 -1 -8 3 -5 6 6 6 11 1 17 -2 13 -5z m488 -4 c-27 -12 -43 -12 -25 0 8 5
22 9 30 9 10 0 8 -3 -5 -9z m1600 0 c-27 -12 -43 -12 -25 0 8 5 22 9 30 9 10
0 8 -3 -5 -9z m-2055 -16 c0 -2 -18 -4 -40 -4 -22 0 -40 3 -40 8 0 4 18 6 40
4 22 -2 40 -6 40 -8z m47 10 c-3 -3 -12 -4 -19 -1 -8 3 -5 6 6 6 11 1 17 -2
13 -5z m2023 -14 c-8 -5 -19 -10 -25 -10 -5 0 -3 5 5 10 8 5 20 10 25 10 6 0
3 -5 -5 -10z m-1640 -10 c18 -12 2 -12 -25 0 -13 6 -15 9 -5 9 8 0 22 -4 30
-9z m1583 3 c-7 -2 -19 -2 -25 0 -7 3 -2 5 12 5 14 0 19 -2 13 -5z m-2096 -55
c-3 -7 -5 -2 -5 12 0 14 2 19 5 13 2 -7 2 -19 0 -25z m630 0 c-3 -7 -5 -2 -5
12 0 14 2 19 5 13 2 -7 2 -19 0 -25z m1120 10 c-3 -8 -6 -5 -6 6 -1 11 2 17 5
13 3 -3 4 -12 1 -19z m-1128 -78 c0 -9 -4 -8 -9 5 -5 11 -9 27 -9 35 0 9 4 8
9 -5 5 -11 9 -27 9 -35z m-612 -12 c-3 -7 -5 -2 -5 12 0 14 2 19 5 13 2 -7 2
-19 0 -25z m363 -8 c13 -11 20 -23 17 -27 -4 -3 -16 4 -27 17 -31 36 -26 41
10 10z m80 -80 c13 -11 20 -23 17 -27 -4 -3 -16 4 -27 17 -31 36 -26 41 10 10z
m1778 -23 c9 -10 6 -13 -13 -12 -13 0 -27 4 -31 8 -5 4 -1 5 9 1 10 -3 17 -1
17 5 0 14 5 14 18 -2z m-1698 -57 c13 -11 20 -23 17 -27 -4 -3 -16 4 -27 17
-31 36 -26 41 10 10z m1277 -2 c-3 -8 -6 -5 -6 6 -1 11 2 17 5 13 3 -3 4 -12
1 -19z m40 -50 c-3 -8 -6 -5 -6 6 -1 11 2 17 5 13 3 -3 4 -12 1 -19z m-1238
-40 c0 -13 -4 -32 -9 -43 -7 -15 -9 -10 -9 23 -1 23 4 42 9 42 6 0 10 -10 9
-22z m-532 -20 c-3 -7 -5 -2 -5 12 0 14 2 19 5 13 2 -7 2 -19 0 -25z m-21 -5
c-10 -10 -19 5 -10 18 6 11 8 11 12 0 2 -7 1 -15 -2 -18z m15 -83 c6 0 7 -5 3
-11 -10 -17 -24 11 -22 46 l1 30 4 -32 c2 -18 9 -33 14 -33z m526 -22 c-3 -8
-6 -5 -6 6 -1 11 2 17 5 13 3 -3 4 -12 1 -19z m1297 -48 c7 -54 -8 -25 -18 35
-4 26 -3 35 3 25 5 -8 12 -35 15 -60z m35 -1 c0 8 3 12 6 9 3 -3 2 -13 -1 -22
-9 -24 -24 -1 -23 34 1 23 2 23 9 -5 4 -16 8 -24 9 -16z m-1331 -35 c-3 -14
-5 -12 -10 9 -3 19 -2 25 4 19 6 -6 8 -18 6 -28z m1452 32 c0 -3 -4 -8 -10
-11 -5 -3 -10 -1 -10 4 0 6 5 11 10 11 6 0 10 -2 10 -4z m-1953 -28 c-3 -8 -6
-5 -6 6 -1 11 2 17 5 13 3 -3 4 -12 1 -19z m500 -155 c-3 -10 -5 -4 -5 12 0
17 2 24 5 18 2 -7 2 -21 0 -30z m-465 -177 c2 -19 0 -32 -4 -30 -8 5 -12 64
-4 64 2 0 6 -15 8 -34z m25 12 c-3 -8 -6 -5 -6 6 -1 11 2 17 5 13 3 -3 4 -12
1 -19z m13 -54 c0 -8 -4 -12 -10 -9 -5 3 -10 10 -10 16 0 5 5 9 10 9 6 0 10
-7 10 -16z m60 -43 c0 -5 -7 -12 -16 -15 -14 -5 -15 -4 -4 9 14 17 20 19 20 6z
m-40 -36 c0 -8 -4 -15 -10 -15 -5 0 -7 7 -4 15 4 8 8 15 10 15 2 0 4 -7 4 -15z"/>
<path d="M6908 7283 c6 -2 18 -2 25 0 6 3 1 5 -13 5 -14 0 -19 -2 -12 -5z"/>
<path d="M5228 7763 c7 -3 16 -2 19 1 4 3 -2 6 -13 5 -11 0 -14 -3 -6 -6z"/>
<path d="M6630 7695 c-2 -48 -4 -55 -10 -35 -6 17 -7 9 -3 -25 3 -27 7 -51 8
-53 6 -7 17 125 12 149 -2 13 -5 -3 -7 -36z"/>
<path d="M7290 7654 c0 -10 5 -26 10 -34 8 -11 9 -7 4 15 -8 37 -14 45 -14 19z"/>
<path d="M7256 7547 c3 -10 9 -15 12 -12 3 3 0 11 -7 18 -10 9 -11 8 -5 -6z"/>
<path d="M7205 7530 c-8 -13 3 -50 15 -50 4 0 11 7 14 16 9 24 7 28 -9 14 -12
-10 -15 -10 -15 3 0 8 6 18 13 20 9 4 9 6 0 6 -6 1 -15 -4 -18 -9z"/>
<path d="M7200 7451 c0 -6 4 -13 10 -16 6 -3 7 1 4 9 -7 18 -14 21 -14 7z"/>
<path d="M7452 7438 c-18 -18 -15 -23 15 -25 22 -1 24 1 10 9 -10 5 -15 13
-12 19 8 13 1 11 -13 -3z"/>
<path d="M7195 7400 c-4 -6 -11 -8 -16 -5 -5 3 -6 -1 -3 -10 4 -9 7 -15 8 -13
1 2 8 11 15 21 7 9 11 17 8 17 -3 0 -9 -5 -12 -10z"/>
<path d="M9495 5398 c-72 -72 -165 -129 -270 -165 -98 -34 -328 -82 -357 -75
-12 3 -9 -5 8 -23 15 -15 15 -18 -10 -44 -19 -20 -25 -35 -22 -59 2 -17 -1
-33 -6 -34 -5 -2 2 -16 16 -31 32 -34 32 -35 4 -60 -15 -13 -19 -21 -11 -24 7
-2 9 -11 6 -19 -6 -17 27 -115 38 -109 4 3 6 -3 5 -13 0 -9 4 -16 11 -15 7 2
10 -3 7 -11 -7 -17 90 -121 113 -121 10 -1 17 -6 16 -13 -2 -6 13 -22 32 -34
19 -13 35 -26 35 -31 0 -4 -11 -31 -25 -59 -14 -29 -23 -59 -20 -66 3 -8 0
-10 -7 -6 -7 5 -9 2 -6 -7 4 -10 -1 -15 -13 -16 -10 -1 -19 3 -19 8 0 6 -5 7
-12 3 -6 -4 -8 -3 -5 3 3 5 -4 18 -16 27 -12 10 -39 34 -59 54 -33 31 -37 33
-35 14 1 -12 5 -22 9 -22 4 0 7 -3 7 -7 -3 -20 2 -34 11 -28 5 3 7 0 4 -9 -7
-17 24 -79 79 -161 57 -83 71 -97 93 -89 14 4 15 3 6 -4 -11 -7 -7 -14 17 -32
18 -12 39 -19 47 -16 9 4 12 2 8 -5 -4 -8 1 -9 16 -4 15 5 20 3 16 -3 -10 -17
144 -14 174 3 21 12 20 16 -5 15 -3 -1 -13 6 -22 15 -8 9 -22 14 -30 11 -7 -3
-16 1 -19 9 -3 8 -22 24 -41 36 -19 12 -31 24 -25 28 7 5 24 53 24 71 0 3 4
10 8 15 5 6 19 41 31 79 22 67 23 68 53 62 75 -16 150 -18 208 -7 79 15 149
41 142 52 -3 5 2 6 11 3 10 -4 22 1 31 15 9 12 19 19 25 16 8 -5 149 118 145
127 0 2 5 -3 12 -11 8 -10 32 -15 66 -15 47 -1 58 3 80 27 28 30 33 43 14 31
-7 -4 -5 2 5 13 23 26 22 91 -2 123 l-19 24 -23 -49 c-12 -28 -29 -65 -38 -83
-14 -29 -14 -34 -1 -43 11 -7 7 -8 -15 -3 -42 9 -48 13 -107 70 -79 76 -179
200 -125 155 15 -12 17 -11 17 3 0 29 -19 55 -63 87 -23 17 -40 31 -38 32 2 1
-3 18 -12 37 -19 42 -87 254 -93 290 -3 14 -10 46 -17 71 l-12 47 -50 -50z
m-165 -409 c9 -11 121 -60 151 -66 22 -4 27 -10 25 -31 -2 -14 -8 -28 -15 -30
-6 -2 -8 -9 -5 -14 4 -6 2 -8 -3 -5 -6 4 -16 1 -22 -6 -15 -19 -116 -5 -144
20 -19 17 -20 17 -14 0 4 -11 3 -16 -4 -12 -6 4 -8 14 -5 22 3 8 3 20 -1 26
-4 6 -7 32 -7 57 -1 41 1 47 19 46 11 -1 22 -4 25 -7z m96 -14 c-11 -8 -25
-15 -30 -15 -6 1 0 7 14 15 32 19 40 18 16 0z m-69 -881 c-3 -3 -12 -4 -19 -1
-8 3 -5 6 6 6 11 1 17 -2 13 -5z"/>
<path d="M8846 5389 c-15 -9 -16 -13 -5 -20 10 -7 7 -8 -10 -7 -18 2 -28 -5
-43 -31 -10 -18 -17 -40 -14 -48 3 -8 1 -11 -4 -8 -6 3 -10 -4 -10 -16 0 -12
3 -19 6 -16 4 3 15 2 25 -4 14 -7 17 -17 13 -33 -4 -16 0 -25 12 -30 22 -8 22
-9 39 57 8 30 27 79 43 109 l30 54 -32 2 c-17 1 -39 -3 -50 -9z m-2 -75 c18
-18 22 -39 5 -28 -8 4 -9 -1 -4 -17 9 -28 3 -24 -15 10 -8 15 -8 21 -1 17 6
-4 11 -3 11 2 0 17 -13 22 -27 10 -11 -8 -12 -7 -7 6 8 20 18 20 38 0z"/>
<path d="M8559 4958 c-13 -17 -26 -35 -28 -40 -4 -10 28 -48 40 -48 18 0 59
45 59 64 -1 51 -38 64 -71 24z"/>
<path d="M8400 4781 c0 -6 5 -13 10 -16 6 -4 7 -12 4 -18 -5 -9 -4 -9 6 0 7 6
10 19 7 27 -7 17 -27 22 -27 7z"/>
<path d="M8450 4692 c-11 -13 -11 -16 2 -26 8 -6 13 -17 10 -25 -3 -8 0 -11 7
-7 7 5 9 1 5 -8 -9 -23 9 -19 34 7 27 28 27 39 5 59 -22 19 -45 19 -63 0z"/>
<path d="M9426 3830 l6 -255 361 -362 c325 -326 362 -361 370 -341 4 12 6 46
4 74 -4 42 -10 58 -33 79 -16 15 -40 29 -55 32 -20 4 -34 19 -54 59 -15 30
-32 51 -38 47 -6 -3 -7 -1 -3 5 8 13 -96 212 -111 212 -2 0 -1 -4 2 -10 3 -5
4 -10 1 -10 -3 0 -10 10 -17 21 -6 12 -7 19 -1 15 5 -3 -9 27 -32 68 -22 41
-43 72 -45 70 -2 -2 -17 22 -32 54 -40 80 -115 193 -122 185 -4 -3 -7 1 -7 11
0 21 -69 122 -82 118 -5 -1 -7 2 -3 8 5 8 -71 127 -107 165 -6 6 -7 -88 -2
-245z"/>
<path d="M3890 3933 c-37 -25 -39 -30 -38 -110 0 -40 -3 -124 -7 -187 -8 -130
1 -173 43 -198 27 -17 26 -17 -61 -18 -81 0 -90 -2 -111 -25 -20 -22 -24 -38
-29 -152 -4 -71 -7 -215 -7 -321 0 -153 3 -199 15 -222 l16 -30 -153 0 c-132
0 -159 -3 -198 -21 -69 -31 -78 -43 -73 -93 6 -48 -15 -98 -47 -119 -19 -11 6
-38 312 -347 l333 -335 -330 328 -330 327 -391 0 c-315 0 -394 -3 -403 -13 -6
-8 -7 -18 -3 -23 4 -4 0 -3 -9 4 -13 10 -20 8 -37 -11 -12 -13 -19 -27 -15
-30 3 -4 -2 -13 -12 -21 -14 -10 -17 -22 -13 -58 6 -56 31 -92 80 -116 l38
-19 -74 -5 c-90 -6 -135 -31 -172 -95 -23 -39 -26 -52 -21 -105 6 -69 38 -118
97 -149 33 -18 70 -19 658 -19 685 0 669 1 691 -60 11 -34 3 -67 -24 -93 -15
-16 1 -17 235 -17 154 0 259 4 271 10 46 25 9 100 -49 100 -44 0 -81 27 -100
75 -18 44 -8 178 15 209 18 26 79 56 111 56 39 0 57 54 28 83 -12 12 18 15
222 21 130 4 361 6 512 6 151 0 281 0 288 0 9 0 12 11 10 33 -2 23 -8 32 -20
31 -10 -1 -15 2 -12 7 3 5 -165 9 -395 9 -342 0 -406 2 -440 16 -52 21 -72 63
-74 159 -2 61 2 78 19 102 47 62 40 61 479 65 417 4 445 7 445 47 0 10 -8 29
-18 41 -16 20 -22 21 -137 15 -253 -12 -504 -16 -612 -10 -99 6 -115 10 -140
31 l-28 24 3 326 c2 289 5 329 20 350 9 12 24 25 32 27 10 3 6 7 -11 15 -55
23 -59 38 -59 260 l0 204 29 29 29 29 -177 0 c-149 0 -180 -3 -201 -17z
m-1480 -1556 c0 -2 -10 -12 -22 -23 l-23 -19 19 23 c18 21 26 27 26 19z m2738
-212 c-3 -3 -9 2 -12 12 -6 14 -5 15 5 6 7 -7 10 -15 7 -18z"/>
<path d="M9430 3553 c0 -12 62 -95 114 -153 17 -19 22 -28 11 -20 -20 14 -20
14 -1 -7 10 -13 23 -20 29 -16 6 3 7 1 3 -6 -10 -15 13 -43 27 -34 6 3 7 1 3
-6 -4 -6 -2 -19 5 -27 10 -12 14 -12 22 -2 6 10 7 9 4 -4 -7 -19 80 -150 121
-185 15 -13 27 -31 27 -40 0 -10 6 -17 13 -15 8 1 11 -2 7 -8 -3 -6 7 -26 24
-46 24 -30 28 -43 24 -72 -4 -25 -3 -33 5 -28 8 5 12 -3 12 -24 0 -24 4 -31
14 -27 10 4 13 1 9 -9 -3 -7 -1 -14 5 -14 5 0 12 19 15 43 7 50 52 97 95 97
23 0 -8 34 -237 264 -146 146 -269 262 -274 259 -6 -3 -7 -2 -4 4 3 5 -12 27
-33 48 -22 22 -40 34 -40 28z"/>
<path d="M6032 3291 c-10 -6 -10 -10 1 -20 12 -9 16 -8 20 3 7 19 -4 27 -21
17z"/>
<path d="M6112 3211 c-10 -6 -10 -10 1 -20 12 -9 16 -8 20 3 7 19 -4 27 -21
17z"/>
<path d="M6192 3131 c-10 -6 -10 -10 1 -20 12 -9 16 -8 20 3 7 19 -4 27 -21
17z"/>
<path d="M2661 2892 c-69 -35 -89 -125 -39 -180 40 -43 77 -52 220 -52 l132 0
-69 70 -69 70 -71 -67 -70 -68 67 70 67 70 -52 53 c-29 28 -59 52 -67 52 -8 0
-30 -8 -49 -18z m119 -176 c0 -2 -8 -10 -17 -17 -16 -13 -17 -12 -4 4 13 16
21 21 21 13z"/>
<path d="M2860 2785 l124 -125 51 1 c66 2 128 26 120 48 -3 8 -3 12 1 8 17
-16 34 18 34 68 0 41 -5 57 -25 79 -34 36 -65 46 -148 46 l-71 0 -56 -52 -55
-53 50 53 49 52 -99 0 -99 0 124 -125z"/>
<path d="M10108 2875 c11 -21 12 -25 13 -52 0 -14 3 -13 11 5 10 19 8 26 -11
45 -21 20 -22 20 -13 2z"/>
<path d="M8243 2765 c0 -8 4 -12 9 -9 5 3 6 10 3 15 -9 13 -12 11 -12 -6z"/>
<path d="M10170 2716 c-7 -9 -16 -14 -20 -11 -4 3 -11 -3 -14 -12 -6 -13 -9
-14 -15 -5 -6 10 -14 2 -27 -25 -10 -21 -18 -41 -19 -45 0 -3 -4 -10 -9 -15
-5 -5 -6 -3 -2 4 5 9 2 11 -8 7 -9 -3 -14 -10 -11 -14 3 -5 1 -11 -5 -15 -5
-3 -10 -19 -10 -34 0 -15 -5 -32 -12 -39 -7 -7 -8 -15 -1 -24 5 -7 8 -37 6
-65 -1 -30 2 -53 7 -53 6 0 10 -6 10 -12 1 -7 9 -31 20 -53 11 -22 20 -47 20
-55 0 -12 2 -12 9 -1 5 7 4 27 -2 46 -5 19 -6 41 -1 52 4 10 8 23 9 29 1 14
31 44 44 44 6 0 7 14 4 34 -6 41 26 196 45 215 13 13 12 16 -4 22 -17 6 -17 7
-2 10 12 3 15 8 9 17 -6 10 -10 10 -21 -2z"/>
<path d="M8057 2531 c-27 -28 -46 -55 -42 -61 4 -6 -1 -7 -11 -3 -13 5 -16 3
-11 -10 3 -9 3 -16 -2 -14 -14 4 -82 -63 -75 -75 4 -6 3 -8 -2 -5 -6 3 -25
-10 -43 -29 -21 -21 -28 -34 -19 -34 8 0 19 5 26 12 6 6 14 9 17 6 3 -3 -10
-16 -30 -29 -19 -13 -35 -27 -35 -31 0 -5 -4 -8 -10 -8 -18 0 -10 17 13 28 12
6 17 11 10 11 -13 1 -63 -42 -63 -53 0 -4 4 -4 10 -1 5 3 18 1 27 -5 17 -11
17 -11 0 -6 -25 8 -57 -7 -95 -44 -30 -28 -34 -38 -34 -83 0 -29 5 -81 12
-116 6 -35 8 -71 5 -79 -10 -28 -35 -214 -35 -269 0 -58 -9 -53 113 -68 47 -6
47 -6 47 23 0 79 50 154 128 190 104 47 318 40 399 -15 l36 -24 -28 48 c-16
26 -36 58 -45 70 -14 18 -18 19 -26 5 -9 -14 -15 -13 -60 4 -38 15 -74 19
-159 18 -60 0 -126 -5 -146 -11 -44 -13 -64 -4 -54 26 7 22 134 90 171 92 12
0 8 4 -11 10 -16 5 -64 7 -106 3 -53 -4 -79 -2 -84 6 -9 15 21 60 41 60 8 0
13 4 10 9 -4 5 2 7 11 5 10 -2 41 2 68 10 l50 14 -108 1 c-120 1 -150 12 -114
43 36 32 213 20 340 -23 70 -23 77 -19 77 49 0 40 -1 42 -30 42 -22 0 -33 6
-40 23 -13 33 -24 98 -22 132 2 23 0 26 -8 15 -6 -10 -8 6 -4 49 5 68 -2 105
-17 96 -5 -4 -9 -2 -9 4 0 5 5 11 12 13 6 2 9 10 7 16 -3 8 -24 -8 -52 -37z
m18 -11 c-3 -5 -12 -10 -18 -10 -7 0 -6 4 3 10 19 12 23 12 15 0z m22 -122
c-3 -8 -6 -5 -6 6 -1 11 2 17 5 13 3 -3 4 -12 1 -19z m-10 -40 c-3 -8 -6 -5
-6 6 -1 11 2 17 5 13 3 -3 4 -12 1 -19z m-147 -29 c0 -5 -7 -9 -15 -9 -8 0
-15 7 -15 15 0 9 6 12 15 9 8 -4 15 -10 15 -15z m80 11 c0 -5 -8 -10 -17 -10
-15 0 -16 2 -3 10 19 12 20 12 20 0z m70 -10 c0 -13 -11 -13 -30 0 -12 8 -11
10 8 10 12 0 22 -4 22 -10z"/>
<path d="M10266 2559 c-36 -29 -34 -75 4 -71 31 3 62 38 58 66 -4 29 -29 31
-62 5z"/>
<path d="M6250 2485 c-6 -8 -9 -18 -7 -22 6 -10 -10 -31 -43 -58 l-25 -20 24
28 c14 15 20 27 14 27 -16 0 -56 -48 -49 -59 4 -5 2 -12 -3 -16 -6 -3 -7 -13
-4 -23 6 -15 5 -15 -11 1 -18 17 -19 17 -40 0 -58 -48 -85 -77 -79 -86 3 -6 2
-7 -4 -4 -13 8 -86 -67 -76 -78 5 -4 3 -5 -3 -2 -7 4 -18 -1 -25 -10 -13 -15
-11 -16 11 -10 40 11 205 20 234 13 19 -5 26 -13 26 -31 l0 -25 -107 -1 -108
0 70 -20 c77 -22 112 -47 101 -75 -6 -14 -15 -16 -72 -10 -36 4 -81 4 -100 0
l-35 -6 54 -23 c72 -29 127 -64 127 -80 0 -25 -26 -36 -56 -24 -16 7 -81 12
-144 13 -91 1 -125 -3 -164 -18 -45 -17 -51 -18 -60 -4 -8 14 -12 13 -28 -8
-11 -13 -16 -29 -12 -35 4 -7 3 -9 -3 -6 -5 3 -20 -12 -33 -35 l-23 -41 25 19
c14 10 24 22 22 25 -2 4 2 6 9 5 6 0 43 5 81 13 106 21 233 11 304 -25 31 -16
66 -44 78 -61 12 -18 23 -30 26 -28 2 2 5 -4 6 -13 1 -9 5 -39 8 -65 l6 -49
52 7 c28 3 64 9 80 12 l29 5 -7 98 c-3 54 -13 131 -21 171 -14 70 -14 82 8
215 l23 142 -50 6 c-28 3 -64 6 -81 6 -23 0 -34 7 -47 30 -19 33 -14 37 16 15
11 -8 14 -15 7 -15 -7 0 -9 -4 -6 -10 7 -12 84 -14 86 -2 1 4 3 43 4 87 2 44
5 101 9 128 6 51 5 54 -14 32z m-145 -175 c3 -5 2 -10 -4 -10 -5 0 -13 5 -16
10 -3 6 -2 10 4 10 5 0 13 -4 16 -10z m42 -16 c-3 -3 -12 -4 -19 -1 -8 3 -5 6
6 6 11 1 17 -2 13 -5z"/>
<path d="M6140 2420 c-8 -6 -11 -10 -6 -10 5 0 3 -7 -4 -15 -6 -8 -17 -13 -22
-12 -6 1 -13 -4 -15 -11 -4 -11 -1 -12 14 -3 14 7 23 7 30 0 7 -7 13 -7 17 -1
3 6 2 14 -4 17 -8 5 -7 11 1 21 15 18 8 26 -11 14z"/>
<path d="M10310 2410 c-41 -41 -13 -110 44 -110 62 0 76 52 27 101 -35 34 -44
36 -71 9z"/>
<path d="M10196 2344 c-8 -22 20 -64 42 -64 11 0 23 -13 30 -34 13 -35 40 -50
63 -35 15 9 6 13 -23 10 -22 -3 -35 44 -18 64 18 22 7 28 -23 14 -34 -15 -61
4 -54 38 5 26 -8 31 -17 7z"/>
<path d="M10496 2299 c-33 -26 -32 -62 1 -67 29 -4 89 49 80 71 -9 23 -49 21
-81 -4z"/>
<path d="M10102 2210 c13 -20 28 -27 28 -12 0 10 -22 32 -32 32 -5 0 -3 -9 4
-20z"/>
<path d="M10358 2113 c-4 -14 -15 -19 -51 -21 -25 -1 -49 3 -52 8 -8 13 -45
13 -45 0 0 -5 6 -10 13 -10 8 0 22 -9 32 -20 10 -11 24 -20 32 -20 7 0 13 -5
13 -11 0 -5 4 -8 9 -5 5 3 12 -1 15 -9 4 -11 13 -14 30 -9 13 3 27 1 30 -5 10
-15 56 -14 56 2 0 8 3 8 9 -2 8 -12 12 -13 26 -1 11 9 19 10 27 2 11 -11 44 5
77 36 7 7 20 11 28 7 11 -4 13 -1 9 10 -3 9 -2 13 3 10 6 -3 21 6 36 21 25 25
25 25 3 18 -13 -3 -24 -10 -26 -14 -4 -10 -126 -2 -177 11 -84 22 -92 22 -97
2z"/>
<path d="M5813 2049 c-10 -4 -20 -5 -23 -3 -3 1 -6 -6 -7 -16 -1 -13 4 -16 18
-13 10 3 17 9 14 13 -3 4 1 8 8 7 28 -1 47 3 47 11 0 9 -32 10 -57 1z"/>
<path d="M8130 2043 c8 -3 30 -12 48 -19 30 -12 32 -12 32 7 0 16 -7 19 -47
18 -27 0 -41 -3 -33 -6z"/>
<path d="M5739 1953 c-12 -14 -12 -16 1 -9 8 5 2 -4 -15 -18 l-30 -26 39 16
c21 8 66 19 100 24 l61 7 -57 2 c-31 0 -60 6 -63 11 -9 15 -21 12 -36 -7z"/>
<path d="M8215 1960 c-3 -5 -30 -11 -58 -11 l-52 -1 50 -8 c28 -4 67 -12 88
-18 39 -11 41 -6 9 31 -17 19 -28 22 -37 7z"/>
<path d="M9250 1666 c0 -2 7 -7 16 -10 8 -3 12 -2 9 4 -6 10 -25 14 -25 6z"/>
<path d="M10450 1647 c0 -1 9 -26 20 -55 11 -29 20 -64 20 -78 0 -35 -59 -94
-94 -94 -40 0 -76 21 -83 49 -3 14 -16 47 -29 73 -13 26 -24 53 -24 60 0 7 -4
19 -9 27 -7 11 -13 9 -30 -8 -11 -11 -28 -21 -36 -21 -7 0 -18 -7 -23 -17 -9
-16 -23 -18 -129 -24 -47 -2 -51 -4 -42 -21 5 -10 22 -26 37 -35 15 -9 38 -27
52 -39 58 -53 111 -66 265 -65 145 0 182 8 228 44 40 33 40 113 0 156 -14 14
-123 57 -123 48z"/>
</g>
</svg>
